<svg xmlns="http://www.w3.org/2000/svg" version="1.1" xmlns:xlink="http://www.w3.org/1999/xlink" xmlns:svgjs="http://svgjs.com/svgjs" width="512" height="512" x="0" y="0" viewBox="0 0 512 512" style="enable-background:new 0 0 512 512" xml:space="preserve" class=""><g><path fill="#5b79ea" d="M114.456 39.793c-45.253 0-82.104 36.844-82.104 82.098 0 45.253 36.851 82.097 82.104 82.097s82.098-36.844 82.098-82.097c0-45.254-36.845-82.098-82.098-82.098z" data-original="#5b79ea"></path><g fill-opacity=".996"><path fill="#14279b" d="M114.453 33.89c-48.507 0-88 39.494-88 88s39.494 88 88 88 87.999-39.494 87.999-88-39.493-88-87.999-88zm0 15.997c39.859 0 72.003 32.144 72.003 72.003s-32.144 71.996-72.003 71.996c-39.86 0-72.003-32.137-72.003-71.996 0-39.86 32.144-72.003 72.003-72.003z" data-original="#14279b"></path><path fill="#ffffff" d="M114.452 62.443a7.997 7.997 0 0 0-7.393 4.94 8.006 8.006 0 0 0-.609 3.062v102.889a8 8 0 0 0 13.658 5.654 7.996 7.996 0 0 0 2.346-5.654V70.445a8.005 8.005 0 0 0-2.343-5.658 7.997 7.997 0 0 0-5.659-2.344z" data-original="#ffffff"></path><path fill="#ffffff" d="M104.642 77.975c-14.178 0-25.748 11.762-25.748 25.954 0 14.193 11.57 25.955 25.748 25.955h18.226c7.426 0 11.146 4.254 11.146 9.958 0 5.705-4.26 9.958-9.751 9.958H86.888a8 8 0 0 0-7.995 8.002 8 8 0 0 0 7.995 8.002h37.375c14.178 0 25.748-11.769 25.748-25.962s-12.11-25.954-27.143-25.954h-18.226c-5.49 0-9.752-4.254-9.752-9.959 0-5.704 4.261-9.958 9.752-9.958h36.437a7.997 7.997 0 0 0 7.393-4.94c.402-.97.609-2.01.609-3.062a8.005 8.005 0 0 0-8.002-7.994z" data-original="#ffffff"></path><path fill="#14279b" d="M15.985 182.592a8.005 8.005 0 0 0-5.658 2.343 7.997 7.997 0 0 0-2.344 5.659v279.515a7.995 7.995 0 0 0 2.344 5.659 8 8 0 0 0 5.658 2.343h480.03a8.003 8.003 0 0 0 8.002-8.002 8 8 0 0 0-8.002-7.995H23.987v-271.52a8 8 0 0 0-8.002-8.002z" data-original="#14279b"></path><path fill="#14279b" d="M77.322 292.795c-14.67 0-26.664 12.128-26.664 26.811v150.502a7.999 7.999 0 1 0 15.997 0V319.606c0-6.162 4.652-10.814 10.667-10.814h26.671c6.014 0 10.666 4.652 10.666 10.814v150.502a8 8 0 0 0 8.002 8.002 8.008 8.008 0 0 0 5.659-2.343 8.004 8.004 0 0 0 2.343-5.659V319.606c0-14.683-12.002-26.811-26.67-26.811zM183.997 214.857c-14.669 0-26.671 12.129-26.671 26.811v228.44a8.008 8.008 0 0 0 2.343 5.659 8.004 8.004 0 0 0 13.661-5.659v-228.44c0-6.161 4.652-10.814 10.667-10.814h26.671c6.015 0 10.666 4.653 10.666 10.814v228.44a8 8 0 1 0 15.997 0v-228.44c0-14.682-11.994-26.811-26.663-26.811zM290.673 292.795c-14.669 0-26.671 12.128-26.671 26.811v150.502a8 8 0 0 0 13.656 5.656 7.999 7.999 0 0 0 2.34-5.656V319.606c0-6.162 4.66-10.814 10.675-10.814h26.663c6.015 0 10.667 4.652 10.667 10.814v150.502a8 8 0 0 0 8.002 8.002 8 8 0 0 0 8.002-8.002V319.606c0-14.683-12.002-26.811-26.671-26.811zM397.341 214.857c-14.669 0-26.663 12.129-26.663 26.811v228.44a7.997 7.997 0 1 0 15.996 0v-228.44c0-6.161 4.652-10.814 10.667-10.814h26.671c6.015 0 10.667 4.653 10.667 10.814v107.4a7.987 7.987 0 0 0 2.343 5.658 8 8 0 0 0 5.659 2.343 8 8 0 0 0 7.994-8.001v-107.4c0-14.682-11.994-26.811-26.663-26.811z" data-original="#14279b"></path><path fill="#fe5e54" d="M442.657 440.561a10.69 10.69 0 0 1-7.59-3.169c-2.013-2.028-3.144-4.78-3.144-7.649s1.131-5.62 3.144-7.649a10.694 10.694 0 0 1 7.59-3.168 10.68 10.68 0 0 1 7.59 3.168 10.83 10.83 0 0 1 2.327 3.51 10.896 10.896 0 0 1 0 8.279 10.841 10.841 0 0 1-2.327 3.51 10.729 10.729 0 0 1-3.482 2.344 10.662 10.662 0 0 1-4.108.824zM442.657 400.18c-2.847 0-5.577-1.14-7.59-3.168-2.013-2.029-3.144-4.781-3.144-7.65s1.131-5.62 3.144-7.649a10.694 10.694 0 0 1 7.59-3.168 10.68 10.68 0 0 1 7.59 3.168 10.83 10.83 0 0 1 2.327 3.51 10.896 10.896 0 0 1 0 8.279 10.83 10.83 0 0 1-2.327 3.51 10.68 10.68 0 0 1-7.59 3.168z" data-original="#fe5e54"></path></g></g></svg>