<svg xmlns="http://www.w3.org/2000/svg" version="1.1" xmlns:xlink="http://www.w3.org/1999/xlink" xmlns:svgjs="http://svgjs.com/svgjs" width="512" height="512" x="0" y="0" viewBox="0 0 64 64" style="enable-background:new 0 0 512 512" xml:space="preserve" class=""><g><g data-name="Desk Bell"><path fill="#376cfb" d="M35 14.22a20.702 20.702 0 0 0-5.999 0L29 10h6z" data-original="#376cfb"></path><path fill="#4294ff" d="M11 38v-3a21 21 0 0 1 42 0v3zM29 42h6v6h-6zM25 6h14v4H25z" data-original="#4294ff" class=""></path><path fill="#376cfb" d="M9 42a2 2 0 0 1 0-4h46a2 2 0 0 1 0 4z" data-original="#376cfb"></path><path fill="#d0dbf7" d="M5 53v-3a2.002 2.002 0 0 1 2-2h50a2.002 2.002 0 0 1 2 2v3z" data-original="#d0dbf7"></path><path fill="#e6ecff" d="M1 58v-3a2.002 2.002 0 0 1 2-2h58a2.002 2.002 0 0 1 2 2v3z" data-original="#e6ecff"></path><g fill="#232328"><path d="M61 52h-1v-2a3.003 3.003 0 0 0-3-3H36v-4h19a3 3 0 0 0 0-6h-1v-2a22.032 22.032 0 0 0-18-21.629V11h3a1 1 0 0 0 1-1V6a1 1 0 0 0-1-1H25a1 1 0 0 0-1 1v4a1 1 0 0 0 1 1h3v2.371A22.032 22.032 0 0 0 10 35v2H9a3 3 0 0 0 0 6h19v4H7a3.003 3.003 0 0 0-3 3v2H3a3.003 3.003 0 0 0-3 3v3a1 1 0 0 0 1 1h62a1 1 0 0 0 1-1v-3a3.003 3.003 0 0 0-3-3zM26 7h12v2H26zm4 6.09V11h4v2.09c-.044-.003-.091-.002-.135-.005C33.249 13.033 32.629 13 32 13s-1.25.033-1.865.085c-.044.003-.09.002-.135.006zM12 35a20 20 0 0 1 40 0v2H12zm-4 5a1.001 1.001 0 0 1 1-1h46a1 1 0 0 1 0 2H9a1.001 1.001 0 0 1-1-1zm22 3h4v4h-4zM6 50a1.001 1.001 0 0 1 1-1h50a1.001 1.001 0 0 1 1 1v2H6zm56 7H2v-2a1.001 1.001 0 0 1 1-1h58a1.001 1.001 0 0 1 1 1z" fill="#232328" data-original="#232328" class=""></path><path d="M26.37 17.901a18.183 18.183 0 0 0-10.42 8.953 1 1 0 0 0 1.783.909 16.166 16.166 0 0 1 9.264-7.962 1 1 0 0 0-.626-1.9zM53.063 23.49a1 1 0 1 0 1.754-.961 26.324 26.324 0 0 0-7.102-8.236 1 1 0 1 0-1.21 1.593 24.297 24.297 0 0 1 6.558 7.605zM47.13 11.452a27.86 27.86 0 0 1 10.396 12.016 1 1 0 1 0 1.824-.823A29.858 29.858 0 0 0 48.21 9.768a1 1 0 1 0-1.08 1.684zM16.285 14.293a26.324 26.324 0 0 0-7.102 8.236 1 1 0 0 0 1.754.962 24.297 24.297 0 0 1 6.558-7.605 1 1 0 1 0-1.21-1.592zM5.15 23.968a1 1 0 0 0 1.323-.5A27.86 27.86 0 0 1 16.87 11.452a1 1 0 1 0-1.08-1.684A29.858 29.858 0 0 0 4.65 22.645a1.001 1.001 0 0 0 .5 1.323z" fill="#232328" data-original="#232328" class=""></path></g></g></g></svg>