<svg xmlns="http://www.w3.org/2000/svg" version="1.1" xmlns:xlink="http://www.w3.org/1999/xlink" xmlns:svgjs="http://svgjs.com/svgjs" width="512" height="512" x="0" y="0" viewBox="0 0 512 512" style="enable-background:new 0 0 512 512" xml:space="preserve" class=""><g><path fill="#ffffff" d="M434.526 214.331V315.83H77.605V214.331c0-18.188 14.844-33.031 33.031-33.031h290.725c18.321-.001 33.165 14.843 33.165 33.031z" data-original="#ffffff" class=""></path><g fill="#ffac37"><path d="M395.751 294.386v21.492h-102.28v-21.492c0-12.123 9.92-22.043 22.043-22.043h58.194c12.123 0 22.043 9.919 22.043 22.043zM218.526 294.386v21.492h-102.28v-21.492c0-12.123 9.92-22.043 22.043-22.043h58.194c12.123 0 22.043 9.919 22.043 22.043z" fill="#ffac37" data-original="#ffac37"></path><path d="M468.052 348.942v135.316h-36.247l-13.681-33.284H93.873l-13.681 33.284H43.945V348.942c0-18.261 14.803-33.064 33.064-33.064h357.978c18.261 0 33.065 14.803 33.065 33.064z" fill="#ffac37" data-original="#ffac37"></path></g><path fill="#ffffff" d="M43.945 382.936h424.106v32.871H43.945z" data-original="#ffffff" class=""></path><path fill="#0e87fe" d="M276.813 115.337c0 11.55-9.306 20.856-20.773 20.856a20.816 20.816 0 0 1-20.856-20.856c0-.499 0-.914.083-1.412h41.462c.084.498.084.914.084 1.412z" data-original="#0e87fe" class=""></path><path fill="#ff5f79" d="M299.58 113.925h-87.162c0-24.097 19.527-43.623 43.54-43.623h.083c24.013 0 43.539 19.526 43.539 43.623z" data-original="#ff5f79" class=""></path><path fill="#07028f" d="M43.947 491.098h36.246a6.836 6.836 0 0 0 6.326-4.239l11.937-29.045H413.54l11.937 29.045a6.838 6.838 0 0 0 6.326 4.239h36.25a6.84 6.84 0 0 0 6.84-6.84V348.943c0-19.828-14.552-36.276-33.527-39.345v-95.266c0-21.988-17.946-39.874-40.004-39.874H110.634c-21.984 0-39.87 17.886-39.87 39.874v95.246c-19.04 3.013-33.658 19.49-33.658 39.365v135.315a6.841 6.841 0 0 0 6.841 6.84zm392.439-13.681-11.937-29.045a6.838 6.838 0 0 0-6.326-4.239H93.874a6.836 6.836 0 0 0-6.326 4.239l-11.937 29.045H50.787v-54.77h410.425v54.77zm-385.599-87.64h410.425v19.189H50.787zm160.897-80.789h-88.598v-14.603c0-8.38 6.82-15.201 15.204-15.201h58.194c8.38 0 15.201 6.82 15.201 15.201v14.603zm177.227 0h-88.598v-14.603c0-8.38 6.82-15.201 15.201-15.201h58.194c8.384 0 15.204 6.82 15.204 15.201v14.603zM84.445 214.331c0-14.442 11.747-26.193 26.189-26.193h290.728c14.516 0 26.323 11.75 26.323 26.193v94.657h-25.094v-14.603c0-15.925-12.956-28.881-28.885-28.881h-58.194c-15.925 0-28.881 12.956-28.881 28.881v14.603h-61.267v-14.603c0-15.925-12.956-28.881-28.881-28.881H138.29c-15.929 0-28.885 12.956-28.885 28.881v14.603h-24.96zM77.01 322.719h357.977c14.462 0 26.226 11.764 26.226 26.223v27.155H50.787v-27.155c0-14.459 11.764-26.223 26.223-26.223zM256 20.902a6.84 6.84 0 0 0-6.84 6.84v36.233c-24.568 3.342-43.584 24.439-43.584 49.95a6.84 6.84 0 0 0 6.84 6.84h16.477c2.532 12.679 13.735 22.268 27.147 22.268 13.371 0 24.541-9.589 27.065-22.268h16.476a6.84 6.84 0 0 0 6.84-6.84c0-25.488-18.982-46.568-43.581-49.94V27.743a6.84 6.84 0 0 0-6.84-6.841zm.04 108.452c-5.758 0-10.718-3.494-12.876-8.587h25.722c-2.114 5.039-7.078 8.587-12.846 8.587zm36.066-22.268h-72.212c3.206-17.024 18.167-29.944 36.146-29.944 17.906 0 32.856 12.919 36.066 29.944z" data-original="#07028f" class=""></path></g></svg>